<svg xmlns="http://www.w3.org/2000/svg" xmlns:xlink="http://www.w3.org/1999/xlink" width="495" zoomAndPan="magnify" viewBox="0 0 371.25 74.249996" height="99" preserveAspectRatio="xMidYMid meet" version="1.0"><defs><g/></defs><g fill="#ff0000" fill-opacity="1"><g transform="translate(34.369246, 58.935373)"><g><path d="M 10.46875 -43.140625 C 15.113281 -45.890625 17.609375 -47.265625 17.953125 -47.265625 C 18.304688 -47.265625 18.894531 -46.945312 19.71875 -46.3125 C 20.539062 -45.675781 21.363281 -44.789062 22.1875 -43.65625 C 23.007812 -42.53125 23.421875 -41.429688 23.421875 -40.359375 L 23.421875 -30.015625 C 23.421875 -29.066406 21.734375 -27.875 18.359375 -26.4375 C 19.222656 -26.1875 20.289062 -25.269531 21.5625 -23.6875 C 22.84375 -22.113281 23.484375 -20.6875 23.484375 -19.40625 L 23.484375 -5.734375 C 23.484375 -5.398438 21.234375 -4.359375 16.734375 -2.609375 C 12.234375 -0.867188 9.476562 0 8.46875 0 C 7.46875 0 6.316406 -0.878906 5.015625 -2.640625 C 3.722656 -4.410156 3.078125 -6.53125 3.078125 -9 L 3.078125 -38.578125 C 3.078125 -40.796875 2.234375 -42.085938 0.546875 -42.453125 L 0.546875 -43.8125 L 6.78125 -47.328125 C 7.6875 -46.953125 8.523438 -46.34375 9.296875 -45.5 C 10.078125 -44.664062 10.46875 -43.878906 10.46875 -43.140625 Z M 13.625 -5.671875 C 14.40625 -5.671875 15.203125 -6 16.015625 -6.65625 L 16.015625 -16.203125 C 16.015625 -19.242188 14.96875 -20.765625 12.875 -20.765625 C 12.050781 -20.765625 11.25 -20.457031 10.46875 -19.84375 L 10.46875 -10.234375 C 10.46875 -7.191406 11.519531 -5.671875 13.625 -5.671875 Z M 16.015625 -36.96875 C 16.015625 -38.082031 15.78125 -39.039062 15.3125 -39.84375 C 14.84375 -40.644531 14.164062 -41.046875 13.28125 -41.046875 C 12.394531 -41.046875 11.457031 -40.425781 10.46875 -39.1875 L 10.46875 -26.4375 C 14.164062 -27.46875 16.015625 -29.6875 16.015625 -33.09375 Z M 16.015625 -36.96875 "/></g></g></g><g fill="#ff0000" fill-opacity="1"><g transform="translate(60.925787, 58.935373)"><g><path d="M 11.578125 -41.46875 C 11.171875 -41.46875 10.800781 -41.265625 10.46875 -40.859375 L 10.46875 -24.59375 L 19.171875 -24.59375 L 19.171875 -23.109375 L 16.078125 -21.5625 L 10.46875 -21.5625 L 10.46875 -15.40625 C 10.46875 -10.84375 10.921875 -8.171875 11.828125 -7.390625 C 13.179688 -6.242188 14.660156 -5.585938 16.265625 -5.421875 C 17.867188 -5.253906 19.597656 -5.171875 21.453125 -5.171875 L 21.453125 -3.390625 C 21.242188 -3.390625 19.722656 -2.820312 16.890625 -1.6875 C 14.054688 -0.5625 12.328125 0 11.703125 0 C 10.429688 0 8.675781 -0.984375 6.4375 -2.953125 C 4.195312 -4.929688 3.078125 -7.066406 3.078125 -9.359375 L 3.078125 -41.78125 C 3.078125 -42.070312 5.425781 -43.085938 10.125 -44.828125 C 14.832031 -46.578125 17.535156 -47.453125 18.234375 -47.453125 C 18.484375 -47.453125 18.769531 -46.851562 19.09375 -45.65625 C 19.425781 -44.46875 19.804688 -43.03125 20.234375 -41.34375 C 20.671875 -39.664062 21.125 -38.425781 21.59375 -37.625 C 22.070312 -36.820312 22.96875 -36.421875 24.28125 -36.421875 L 24.28125 -35.1875 C 23.375 -34.78125 21.84375 -34.050781 19.6875 -33 C 17.53125 -31.945312 16.367188 -31.421875 16.203125 -31.421875 C 15.585938 -31.421875 14.804688 -33.09375 13.859375 -36.4375 C 12.921875 -39.789062 12.160156 -41.46875 11.578125 -41.46875 Z M 11.578125 -41.46875 "/></g></g></g><g fill="#ff0000" fill-opacity="1"><g transform="translate(86.434856, 58.935373)"><g><path d="M 11.578125 -41.46875 C 11.171875 -41.46875 10.800781 -41.265625 10.46875 -40.859375 L 10.46875 -15.40625 C 10.46875 -13.675781 10.570312 -12.285156 10.78125 -11.234375 C 10.988281 -10.191406 11.441406 -9.160156 12.140625 -8.140625 C 13.492188 -6.160156 16.597656 -5.171875 21.453125 -5.171875 L 21.453125 -3.390625 C 21.242188 -3.390625 19.722656 -2.820312 16.890625 -1.6875 C 14.054688 -0.5625 12.328125 0 11.703125 0 C 9.648438 0 7.695312 -1.179688 5.84375 -3.546875 C 4 -5.910156 3.078125 -8.40625 3.078125 -11.03125 L 3.078125 -41.78125 C 3.078125 -42.070312 5.425781 -43.085938 10.125 -44.828125 C 14.832031 -46.578125 17.535156 -47.453125 18.234375 -47.453125 C 18.484375 -47.453125 18.769531 -46.851562 19.09375 -45.65625 C 19.425781 -44.46875 19.804688 -43.03125 20.234375 -41.34375 C 20.671875 -39.664062 21.125 -38.425781 21.59375 -37.625 C 22.070312 -36.820312 22.96875 -36.421875 24.28125 -36.421875 L 24.28125 -35.1875 C 23.375 -34.78125 21.84375 -34.050781 19.6875 -33 C 17.53125 -31.945312 16.367188 -31.421875 16.203125 -31.421875 C 15.585938 -31.421875 14.804688 -33.09375 13.859375 -36.4375 C 12.921875 -39.789062 12.160156 -41.46875 11.578125 -41.46875 Z M 11.578125 -41.46875 "/></g></g></g><g fill="#ff0000" fill-opacity="1"><g transform="translate(111.943925, 58.935373)"><g><path d="M 3.078125 -9 L 3.078125 -41.78125 C 3.078125 -42.070312 5.414062 -43.085938 10.09375 -44.828125 C 14.78125 -46.578125 17.472656 -47.453125 18.171875 -47.453125 C 18.878906 -47.453125 19.941406 -46.609375 21.359375 -44.921875 C 22.773438 -43.234375 23.484375 -41.710938 23.484375 -40.359375 L 23.484375 -5.734375 C 23.484375 -5.398438 21.234375 -4.359375 16.734375 -2.609375 C 12.234375 -0.867188 9.476562 0 8.46875 0 C 7.46875 0 6.316406 -0.878906 5.015625 -2.640625 C 3.722656 -4.410156 3.078125 -6.53125 3.078125 -9 Z M 13.625 -5.671875 C 14.40625 -5.671875 15.203125 -6 16.015625 -6.65625 L 16.015625 -37.15625 C 16.015625 -40.195312 14.96875 -41.71875 12.875 -41.71875 C 12.050781 -41.71875 11.25 -41.410156 10.46875 -40.796875 L 10.46875 -10.234375 C 10.46875 -7.191406 11.519531 -5.671875 13.625 -5.671875 Z M 13.625 -5.671875 "/></g></g></g><g fill="#ff0000" fill-opacity="1"><g transform="translate(139.116628, 58.935373)"><g/></g></g><g fill="#ff0000" fill-opacity="1"><g transform="translate(151.439888, 58.935373)"><g><path d="M 23.484375 -40.359375 L 23.484375 -5.734375 C 23.484375 -5.398438 21.234375 -4.359375 16.734375 -2.609375 C 12.234375 -0.867188 9.476562 0 8.46875 0 C 7.46875 0 6.316406 -0.878906 5.015625 -2.640625 C 3.722656 -4.410156 3.078125 -6.53125 3.078125 -9 L 3.078125 -38.578125 C 3.078125 -40.796875 2.234375 -42.085938 0.546875 -42.453125 L 0.546875 -43.8125 L 6.78125 -47.328125 C 7.6875 -46.953125 8.523438 -46.34375 9.296875 -45.5 C 10.078125 -44.664062 10.46875 -43.878906 10.46875 -43.140625 L 18.125 -47.453125 C 18.863281 -47.453125 19.941406 -46.609375 21.359375 -44.921875 C 22.773438 -43.234375 23.484375 -41.710938 23.484375 -40.359375 Z M 13.625 -5.671875 C 14.40625 -5.671875 15.203125 -6 16.015625 -6.65625 L 16.015625 -35.75 C 16.015625 -38.664062 14.96875 -40.125 12.875 -40.125 C 12.050781 -40.125 11.25 -39.8125 10.46875 -39.1875 L 10.46875 -10.234375 C 10.46875 -7.191406 11.519531 -5.671875 13.625 -5.671875 Z M 13.625 -5.671875 "/></g></g></g><g fill="#ff0000" fill-opacity="1"><g transform="translate(178.612592, 58.935373)"><g><path d="M 3.078125 -9 L 3.078125 -41.78125 C 3.078125 -42.070312 5.414062 -43.085938 10.09375 -44.828125 C 14.78125 -46.578125 17.472656 -47.453125 18.171875 -47.453125 C 18.878906 -47.453125 19.941406 -46.609375 21.359375 -44.921875 C 22.773438 -43.234375 23.484375 -41.710938 23.484375 -40.359375 L 23.484375 -5.734375 C 23.484375 -5.398438 21.234375 -4.359375 16.734375 -2.609375 C 12.234375 -0.867188 9.476562 0 8.46875 0 C 7.46875 0 6.316406 -0.878906 5.015625 -2.640625 C 3.722656 -4.410156 3.078125 -6.53125 3.078125 -9 Z M 13.625 -5.671875 C 14.40625 -5.671875 15.203125 -6 16.015625 -6.65625 L 16.015625 -37.15625 C 16.015625 -40.195312 14.96875 -41.71875 12.875 -41.71875 C 12.050781 -41.71875 11.25 -41.410156 10.46875 -40.796875 L 10.46875 -10.234375 C 10.46875 -7.191406 11.519531 -5.671875 13.625 -5.671875 Z M 13.625 -5.671875 "/></g></g></g><g fill="#ff0000" fill-opacity="1"><g transform="translate(205.785295, 58.935373)"><g/></g></g><g fill="#ff0000" fill-opacity="1"><g transform="translate(218.108555, 58.935373)"><g><path d="M 3.078125 -6.28125 L 3.078125 -37.40625 C 3.078125 -38.757812 2.789062 -39.925781 2.21875 -40.90625 C 1.644531 -41.894531 0.925781 -42.390625 0.0625 -42.390625 L 0.0625 -43.75 C 0.351562 -43.789062 2.59375 -45.046875 6.78125 -47.515625 C 7.0625 -47.429688 7.40625 -47.316406 7.8125 -47.171875 C 8.226562 -47.023438 8.773438 -46.625 9.453125 -45.96875 C 10.128906 -45.3125 10.46875 -44.550781 10.46875 -43.6875 C 10.71875 -43.8125 11.421875 -44.203125 12.578125 -44.859375 C 15.609375 -46.585938 17.484375 -47.453125 18.203125 -47.453125 C 18.921875 -47.453125 19.722656 -47.082031 20.609375 -46.34375 C 21.492188 -45.601562 22.160156 -44.71875 22.609375 -43.6875 C 22.691406 -43.726562 23.535156 -44.160156 25.140625 -44.984375 C 28.347656 -46.628906 30.28125 -47.453125 30.9375 -47.453125 C 32.25 -47.453125 33.476562 -46.585938 34.625 -44.859375 C 35.78125 -43.140625 36.359375 -41.5625 36.359375 -40.125 L 36.359375 -9.125 C 36.359375 -6.863281 37.363281 -5.523438 39.375 -5.109375 L 39.375 -3.765625 L 32.65625 0 C 31.757812 -0.363281 30.921875 -0.96875 30.140625 -1.8125 C 29.359375 -2.65625 28.96875 -3.445312 28.96875 -4.1875 L 28.96875 -34.390625 C 28.96875 -36.847656 28.566406 -38.5625 27.765625 -39.53125 C 26.960938 -40.5 25.515625 -41.023438 23.421875 -41.109375 L 23.421875 -9.125 C 23.421875 -6.863281 24.425781 -5.523438 26.4375 -5.109375 L 26.4375 -3.765625 L 19.71875 0 C 18.8125 -0.363281 17.96875 -0.96875 17.1875 -1.8125 C 16.40625 -2.65625 16.015625 -3.445312 16.015625 -4.1875 L 16.015625 -34.390625 C 16.015625 -36.972656 15.632812 -38.738281 14.875 -39.6875 C 14.125 -40.632812 12.65625 -41.109375 10.46875 -41.109375 L 10.46875 -9.484375 C 10.46875 -7.960938 10.632812 -6.875 10.96875 -6.21875 C 11.300781 -5.5625 11.976562 -5.234375 13 -5.234375 L 13 -3.328125 L 0.375 1.96875 L -0.609375 0 C 0.285156 0 1.144531 -0.535156 1.96875 -1.609375 C 2.707031 -2.628906 3.078125 -4.1875 3.078125 -6.28125 Z M 3.078125 -6.28125 "/></g></g></g><g fill="#ff0000" fill-opacity="1"><g transform="translate(258.158992, 58.935373)"><g><path d="M 3.078125 -6.28125 L 3.078125 -41.65625 C 3.078125 -41.945312 5.414062 -42.960938 10.09375 -44.703125 C 14.78125 -46.453125 17.472656 -47.328125 18.171875 -47.328125 C 18.878906 -47.328125 19.941406 -46.484375 21.359375 -44.796875 C 22.773438 -43.117188 23.484375 -41.597656 23.484375 -40.234375 L 23.484375 -24.09375 L 26.5 -24.09375 L 26.5 -22.609375 L 23.484375 -21.078125 L 23.484375 -9.125 C 23.484375 -6.863281 24.46875 -5.523438 26.4375 -5.109375 L 26.4375 -3.765625 L 19.71875 0 C 18.8125 -0.363281 17.96875 -0.96875 17.1875 -1.8125 C 16.40625 -2.65625 16.015625 -3.445312 16.015625 -4.1875 L 16.015625 -21.078125 L 10.46875 -21.078125 L 10.46875 -9.484375 C 10.46875 -7.960938 10.632812 -6.875 10.96875 -6.21875 C 11.300781 -5.5625 11.976562 -5.234375 13 -5.234375 L 13 -3.328125 L 0.375 1.96875 L -0.609375 0 C 0.285156 0 1.144531 -0.535156 1.96875 -1.609375 C 2.707031 -2.628906 3.078125 -4.1875 3.078125 -6.28125 Z M 12.875 -41.59375 C 12.050781 -41.59375 11.25 -41.285156 10.46875 -40.671875 L 10.46875 -22.5 L 14.109375 -24.09375 L 16.015625 -24.09375 L 16.015625 -37.03125 C 16.015625 -40.070312 14.96875 -41.59375 12.875 -41.59375 Z M 12.875 -41.59375 "/></g></g></g><g fill="#ff0000" fill-opacity="1"><g transform="translate(285.331684, 58.935373)"><g><path d="M 13.625 -5.671875 C 14.40625 -5.671875 15.203125 -6 16.015625 -6.65625 L 16.015625 -14.609375 C 16.015625 -17.109375 15.175781 -18.523438 13.5 -18.859375 L 13.5 -20.21875 L 19.71875 -23.71875 C 20.582031 -23.351562 21.425781 -22.75 22.25 -21.90625 C 23.070312 -21.0625 23.484375 -20.269531 23.484375 -19.53125 L 23.484375 -5.734375 C 23.484375 -5.398438 21.234375 -4.359375 16.734375 -2.609375 C 12.234375 -0.867188 9.476562 0 8.46875 0 C 7.46875 0 6.316406 -0.878906 5.015625 -2.640625 C 3.722656 -4.410156 3.078125 -6.53125 3.078125 -9 L 3.078125 -41.78125 C 3.078125 -42.070312 5.425781 -43.085938 10.125 -44.828125 C 14.832031 -46.578125 17.535156 -47.453125 18.234375 -47.453125 C 18.484375 -47.453125 18.769531 -46.851562 19.09375 -45.65625 C 19.425781 -44.46875 19.804688 -43.03125 20.234375 -41.34375 C 20.671875 -39.664062 21.125 -38.425781 21.59375 -37.625 C 22.070312 -36.820312 22.96875 -36.421875 24.28125 -36.421875 L 24.28125 -35.1875 C 23.375 -34.78125 21.84375 -34.050781 19.6875 -33 C 17.53125 -31.945312 16.367188 -31.421875 16.203125 -31.421875 C 15.585938 -31.421875 14.804688 -33.09375 13.859375 -36.4375 C 12.921875 -39.789062 12.160156 -41.46875 11.578125 -41.46875 C 11.171875 -41.46875 10.800781 -41.265625 10.46875 -40.859375 L 10.46875 -10.234375 C 10.46875 -7.191406 11.519531 -5.671875 13.625 -5.671875 Z M 13.625 -5.671875 "/></g></g></g><g fill="#ff0000" fill-opacity="1"><g transform="translate(311.888225, 58.935373)"><g><path d="M 3.078125 -9 L 3.078125 -41.78125 C 3.078125 -42.070312 5.414062 -43.085938 10.09375 -44.828125 C 14.78125 -46.578125 17.472656 -47.453125 18.171875 -47.453125 C 18.878906 -47.453125 19.941406 -46.609375 21.359375 -44.921875 C 22.773438 -43.234375 23.484375 -41.710938 23.484375 -40.359375 L 23.484375 -5.734375 C 23.484375 -5.398438 21.234375 -4.359375 16.734375 -2.609375 C 12.234375 -0.867188 9.476562 0 8.46875 0 C 7.46875 0 6.316406 -0.878906 5.015625 -2.640625 C 3.722656 -4.410156 3.078125 -6.53125 3.078125 -9 Z M 13.625 -5.671875 C 14.40625 -5.671875 15.203125 -6 16.015625 -6.65625 L 16.015625 -37.15625 C 16.015625 -40.195312 14.96875 -41.71875 12.875 -41.71875 C 12.050781 -41.71875 11.25 -41.410156 10.46875 -40.796875 L 10.46875 -10.234375 C 10.46875 -7.191406 11.519531 -5.671875 13.625 -5.671875 Z M 13.625 -5.671875 "/></g></g></g><g fill="#00ffff" fill-opacity="1"><g transform="translate(32.058382, 58.935373)"><g><path d="M 10.46875 -43.140625 C 15.113281 -45.890625 17.609375 -47.265625 17.953125 -47.265625 C 18.304688 -47.265625 18.894531 -46.945312 19.71875 -46.3125 C 20.539062 -45.675781 21.363281 -44.789062 22.1875 -43.65625 C 23.007812 -42.53125 23.421875 -41.429688 23.421875 -40.359375 L 23.421875 -30.015625 C 23.421875 -29.066406 21.734375 -27.875 18.359375 -26.4375 C 19.222656 -26.1875 20.289062 -25.269531 21.5625 -23.6875 C 22.84375 -22.113281 23.484375 -20.6875 23.484375 -19.40625 L 23.484375 -5.734375 C 23.484375 -5.398438 21.234375 -4.359375 16.734375 -2.609375 C 12.234375 -0.867188 9.476562 0 8.46875 0 C 7.46875 0 6.316406 -0.878906 5.015625 -2.640625 C 3.722656 -4.410156 3.078125 -6.53125 3.078125 -9 L 3.078125 -38.578125 C 3.078125 -40.796875 2.234375 -42.085938 0.546875 -42.453125 L 0.546875 -43.8125 L 6.78125 -47.328125 C 7.6875 -46.953125 8.523438 -46.34375 9.296875 -45.5 C 10.078125 -44.664062 10.46875 -43.878906 10.46875 -43.140625 Z M 13.625 -5.671875 C 14.40625 -5.671875 15.203125 -6 16.015625 -6.65625 L 16.015625 -16.203125 C 16.015625 -19.242188 14.96875 -20.765625 12.875 -20.765625 C 12.050781 -20.765625 11.25 -20.457031 10.46875 -19.84375 L 10.46875 -10.234375 C 10.46875 -7.191406 11.519531 -5.671875 13.625 -5.671875 Z M 16.015625 -36.96875 C 16.015625 -38.082031 15.78125 -39.039062 15.3125 -39.84375 C 14.84375 -40.644531 14.164062 -41.046875 13.28125 -41.046875 C 12.394531 -41.046875 11.457031 -40.425781 10.46875 -39.1875 L 10.46875 -26.4375 C 14.164062 -27.46875 16.015625 -29.6875 16.015625 -33.09375 Z M 16.015625 -36.96875 "/></g></g></g><g fill="#00ffff" fill-opacity="1"><g transform="translate(58.614922, 58.935373)"><g><path d="M 11.578125 -41.46875 C 11.171875 -41.46875 10.800781 -41.265625 10.46875 -40.859375 L 10.46875 -24.59375 L 19.171875 -24.59375 L 19.171875 -23.109375 L 16.078125 -21.5625 L 10.46875 -21.5625 L 10.46875 -15.40625 C 10.46875 -10.84375 10.921875 -8.171875 11.828125 -7.390625 C 13.179688 -6.242188 14.660156 -5.585938 16.265625 -5.421875 C 17.867188 -5.253906 19.597656 -5.171875 21.453125 -5.171875 L 21.453125 -3.390625 C 21.242188 -3.390625 19.722656 -2.820312 16.890625 -1.6875 C 14.054688 -0.5625 12.328125 0 11.703125 0 C 10.429688 0 8.675781 -0.984375 6.4375 -2.953125 C 4.195312 -4.929688 3.078125 -7.066406 3.078125 -9.359375 L 3.078125 -41.78125 C 3.078125 -42.070312 5.425781 -43.085938 10.125 -44.828125 C 14.832031 -46.578125 17.535156 -47.453125 18.234375 -47.453125 C 18.484375 -47.453125 18.769531 -46.851562 19.09375 -45.65625 C 19.425781 -44.46875 19.804688 -43.03125 20.234375 -41.34375 C 20.671875 -39.664062 21.125 -38.425781 21.59375 -37.625 C 22.070312 -36.820312 22.96875 -36.421875 24.28125 -36.421875 L 24.28125 -35.1875 C 23.375 -34.78125 21.84375 -34.050781 19.6875 -33 C 17.53125 -31.945312 16.367188 -31.421875 16.203125 -31.421875 C 15.585938 -31.421875 14.804688 -33.09375 13.859375 -36.4375 C 12.921875 -39.789062 12.160156 -41.46875 11.578125 -41.46875 Z M 11.578125 -41.46875 "/></g></g></g><g fill="#00ffff" fill-opacity="1"><g transform="translate(84.123991, 58.935373)"><g><path d="M 11.578125 -41.46875 C 11.171875 -41.46875 10.800781 -41.265625 10.46875 -40.859375 L 10.46875 -15.40625 C 10.46875 -13.675781 10.570312 -12.285156 10.78125 -11.234375 C 10.988281 -10.191406 11.441406 -9.160156 12.140625 -8.140625 C 13.492188 -6.160156 16.597656 -5.171875 21.453125 -5.171875 L 21.453125 -3.390625 C 21.242188 -3.390625 19.722656 -2.820312 16.890625 -1.6875 C 14.054688 -0.5625 12.328125 0 11.703125 0 C 9.648438 0 7.695312 -1.179688 5.84375 -3.546875 C 4 -5.910156 3.078125 -8.40625 3.078125 -11.03125 L 3.078125 -41.78125 C 3.078125 -42.070312 5.425781 -43.085938 10.125 -44.828125 C 14.832031 -46.578125 17.535156 -47.453125 18.234375 -47.453125 C 18.484375 -47.453125 18.769531 -46.851562 19.09375 -45.65625 C 19.425781 -44.46875 19.804688 -43.03125 20.234375 -41.34375 C 20.671875 -39.664062 21.125 -38.425781 21.59375 -37.625 C 22.070312 -36.820312 22.96875 -36.421875 24.28125 -36.421875 L 24.28125 -35.1875 C 23.375 -34.78125 21.84375 -34.050781 19.6875 -33 C 17.53125 -31.945312 16.367188 -31.421875 16.203125 -31.421875 C 15.585938 -31.421875 14.804688 -33.09375 13.859375 -36.4375 C 12.921875 -39.789062 12.160156 -41.46875 11.578125 -41.46875 Z M 11.578125 -41.46875 "/></g></g></g><g fill="#00ffff" fill-opacity="1"><g transform="translate(109.633061, 58.935373)"><g><path d="M 3.078125 -9 L 3.078125 -41.78125 C 3.078125 -42.070312 5.414062 -43.085938 10.09375 -44.828125 C 14.78125 -46.578125 17.472656 -47.453125 18.171875 -47.453125 C 18.878906 -47.453125 19.941406 -46.609375 21.359375 -44.921875 C 22.773438 -43.234375 23.484375 -41.710938 23.484375 -40.359375 L 23.484375 -5.734375 C 23.484375 -5.398438 21.234375 -4.359375 16.734375 -2.609375 C 12.234375 -0.867188 9.476562 0 8.46875 0 C 7.46875 0 6.316406 -0.878906 5.015625 -2.640625 C 3.722656 -4.410156 3.078125 -6.53125 3.078125 -9 Z M 13.625 -5.671875 C 14.40625 -5.671875 15.203125 -6 16.015625 -6.65625 L 16.015625 -37.15625 C 16.015625 -40.195312 14.96875 -41.71875 12.875 -41.71875 C 12.050781 -41.71875 11.25 -41.410156 10.46875 -40.796875 L 10.46875 -10.234375 C 10.46875 -7.191406 11.519531 -5.671875 13.625 -5.671875 Z M 13.625 -5.671875 "/></g></g></g><g fill="#00ffff" fill-opacity="1"><g transform="translate(136.805764, 58.935373)"><g/></g></g><g fill="#00ffff" fill-opacity="1"><g transform="translate(149.129024, 58.935373)"><g><path d="M 23.484375 -40.359375 L 23.484375 -5.734375 C 23.484375 -5.398438 21.234375 -4.359375 16.734375 -2.609375 C 12.234375 -0.867188 9.476562 0 8.46875 0 C 7.46875 0 6.316406 -0.878906 5.015625 -2.640625 C 3.722656 -4.410156 3.078125 -6.53125 3.078125 -9 L 3.078125 -38.578125 C 3.078125 -40.796875 2.234375 -42.085938 0.546875 -42.453125 L 0.546875 -43.8125 L 6.78125 -47.328125 C 7.6875 -46.953125 8.523438 -46.34375 9.296875 -45.5 C 10.078125 -44.664062 10.46875 -43.878906 10.46875 -43.140625 L 18.125 -47.453125 C 18.863281 -47.453125 19.941406 -46.609375 21.359375 -44.921875 C 22.773438 -43.234375 23.484375 -41.710938 23.484375 -40.359375 Z M 13.625 -5.671875 C 14.40625 -5.671875 15.203125 -6 16.015625 -6.65625 L 16.015625 -35.75 C 16.015625 -38.664062 14.96875 -40.125 12.875 -40.125 C 12.050781 -40.125 11.25 -39.8125 10.46875 -39.1875 L 10.46875 -10.234375 C 10.46875 -7.191406 11.519531 -5.671875 13.625 -5.671875 Z M 13.625 -5.671875 "/></g></g></g><g fill="#00ffff" fill-opacity="1"><g transform="translate(176.301727, 58.935373)"><g><path d="M 3.078125 -9 L 3.078125 -41.78125 C 3.078125 -42.070312 5.414062 -43.085938 10.09375 -44.828125 C 14.78125 -46.578125 17.472656 -47.453125 18.171875 -47.453125 C 18.878906 -47.453125 19.941406 -46.609375 21.359375 -44.921875 C 22.773438 -43.234375 23.484375 -41.710938 23.484375 -40.359375 L 23.484375 -5.734375 C 23.484375 -5.398438 21.234375 -4.359375 16.734375 -2.609375 C 12.234375 -0.867188 9.476562 0 8.46875 0 C 7.46875 0 6.316406 -0.878906 5.015625 -2.640625 C 3.722656 -4.410156 3.078125 -6.53125 3.078125 -9 Z M 13.625 -5.671875 C 14.40625 -5.671875 15.203125 -6 16.015625 -6.65625 L 16.015625 -37.15625 C 16.015625 -40.195312 14.96875 -41.71875 12.875 -41.71875 C 12.050781 -41.71875 11.25 -41.410156 10.46875 -40.796875 L 10.46875 -10.234375 C 10.46875 -7.191406 11.519531 -5.671875 13.625 -5.671875 Z M 13.625 -5.671875 "/></g></g></g><g fill="#00ffff" fill-opacity="1"><g transform="translate(203.474431, 58.935373)"><g/></g></g><g fill="#00ffff" fill-opacity="1"><g transform="translate(215.797691, 58.935373)"><g><path d="M 3.078125 -6.28125 L 3.078125 -37.40625 C 3.078125 -38.757812 2.789062 -39.925781 2.21875 -40.90625 C 1.644531 -41.894531 0.925781 -42.390625 0.0625 -42.390625 L 0.0625 -43.75 C 0.351562 -43.789062 2.59375 -45.046875 6.78125 -47.515625 C 7.0625 -47.429688 7.40625 -47.316406 7.8125 -47.171875 C 8.226562 -47.023438 8.773438 -46.625 9.453125 -45.96875 C 10.128906 -45.3125 10.46875 -44.550781 10.46875 -43.6875 C 10.71875 -43.8125 11.421875 -44.203125 12.578125 -44.859375 C 15.609375 -46.585938 17.484375 -47.453125 18.203125 -47.453125 C 18.921875 -47.453125 19.722656 -47.082031 20.609375 -46.34375 C 21.492188 -45.601562 22.160156 -44.71875 22.609375 -43.6875 C 22.691406 -43.726562 23.535156 -44.160156 25.140625 -44.984375 C 28.347656 -46.628906 30.28125 -47.453125 30.9375 -47.453125 C 32.25 -47.453125 33.476562 -46.585938 34.625 -44.859375 C 35.78125 -43.140625 36.359375 -41.5625 36.359375 -40.125 L 36.359375 -9.125 C 36.359375 -6.863281 37.363281 -5.523438 39.375 -5.109375 L 39.375 -3.765625 L 32.65625 0 C 31.757812 -0.363281 30.921875 -0.96875 30.140625 -1.8125 C 29.359375 -2.65625 28.96875 -3.445312 28.96875 -4.1875 L 28.96875 -34.390625 C 28.96875 -36.847656 28.566406 -38.5625 27.765625 -39.53125 C 26.960938 -40.5 25.515625 -41.023438 23.421875 -41.109375 L 23.421875 -9.125 C 23.421875 -6.863281 24.425781 -5.523438 26.4375 -5.109375 L 26.4375 -3.765625 L 19.71875 0 C 18.8125 -0.363281 17.96875 -0.96875 17.1875 -1.8125 C 16.40625 -2.65625 16.015625 -3.445312 16.015625 -4.1875 L 16.015625 -34.390625 C 16.015625 -36.972656 15.632812 -38.738281 14.875 -39.6875 C 14.125 -40.632812 12.65625 -41.109375 10.46875 -41.109375 L 10.46875 -9.484375 C 10.46875 -7.960938 10.632812 -6.875 10.96875 -6.21875 C 11.300781 -5.5625 11.976562 -5.234375 13 -5.234375 L 13 -3.328125 L 0.375 1.96875 L -0.609375 0 C 0.285156 0 1.144531 -0.535156 1.96875 -1.609375 C 2.707031 -2.628906 3.078125 -4.1875 3.078125 -6.28125 Z M 3.078125 -6.28125 "/></g></g></g><g fill="#00ffff" fill-opacity="1"><g transform="translate(255.848127, 58.935373)"><g><path d="M 3.078125 -6.28125 L 3.078125 -41.65625 C 3.078125 -41.945312 5.414062 -42.960938 10.09375 -44.703125 C 14.78125 -46.453125 17.472656 -47.328125 18.171875 -47.328125 C 18.878906 -47.328125 19.941406 -46.484375 21.359375 -44.796875 C 22.773438 -43.117188 23.484375 -41.597656 23.484375 -40.234375 L 23.484375 -24.09375 L 26.5 -24.09375 L 26.5 -22.609375 L 23.484375 -21.078125 L 23.484375 -9.125 C 23.484375 -6.863281 24.46875 -5.523438 26.4375 -5.109375 L 26.4375 -3.765625 L 19.71875 0 C 18.8125 -0.363281 17.96875 -0.96875 17.1875 -1.8125 C 16.40625 -2.65625 16.015625 -3.445312 16.015625 -4.1875 L 16.015625 -21.078125 L 10.46875 -21.078125 L 10.46875 -9.484375 C 10.46875 -7.960938 10.632812 -6.875 10.96875 -6.21875 C 11.300781 -5.5625 11.976562 -5.234375 13 -5.234375 L 13 -3.328125 L 0.375 1.96875 L -0.609375 0 C 0.285156 0 1.144531 -0.535156 1.96875 -1.609375 C 2.707031 -2.628906 3.078125 -4.1875 3.078125 -6.28125 Z M 12.875 -41.59375 C 12.050781 -41.59375 11.25 -41.285156 10.46875 -40.671875 L 10.46875 -22.5 L 14.109375 -24.09375 L 16.015625 -24.09375 L 16.015625 -37.03125 C 16.015625 -40.070312 14.96875 -41.59375 12.875 -41.59375 Z M 12.875 -41.59375 "/></g></g></g><g fill="#00ffff" fill-opacity="1"><g transform="translate(283.02082, 58.935373)"><g><path d="M 13.625 -5.671875 C 14.40625 -5.671875 15.203125 -6 16.015625 -6.65625 L 16.015625 -14.609375 C 16.015625 -17.109375 15.175781 -18.523438 13.5 -18.859375 L 13.5 -20.21875 L 19.71875 -23.71875 C 20.582031 -23.351562 21.425781 -22.75 22.25 -21.90625 C 23.070312 -21.0625 23.484375 -20.269531 23.484375 -19.53125 L 23.484375 -5.734375 C 23.484375 -5.398438 21.234375 -4.359375 16.734375 -2.609375 C 12.234375 -0.867188 9.476562 0 8.46875 0 C 7.46875 0 6.316406 -0.878906 5.015625 -2.640625 C 3.722656 -4.410156 3.078125 -6.53125 3.078125 -9 L 3.078125 -41.78125 C 3.078125 -42.070312 5.425781 -43.085938 10.125 -44.828125 C 14.832031 -46.578125 17.535156 -47.453125 18.234375 -47.453125 C 18.484375 -47.453125 18.769531 -46.851562 19.09375 -45.65625 C 19.425781 -44.46875 19.804688 -43.03125 20.234375 -41.34375 C 20.671875 -39.664062 21.125 -38.425781 21.59375 -37.625 C 22.070312 -36.820312 22.96875 -36.421875 24.28125 -36.421875 L 24.28125 -35.1875 C 23.375 -34.78125 21.84375 -34.050781 19.6875 -33 C 17.53125 -31.945312 16.367188 -31.421875 16.203125 -31.421875 C 15.585938 -31.421875 14.804688 -33.09375 13.859375 -36.4375 C 12.921875 -39.789062 12.160156 -41.46875 11.578125 -41.46875 C 11.171875 -41.46875 10.800781 -41.265625 10.46875 -40.859375 L 10.46875 -10.234375 C 10.46875 -7.191406 11.519531 -5.671875 13.625 -5.671875 Z M 13.625 -5.671875 "/></g></g></g><g fill="#00ffff" fill-opacity="1"><g transform="translate(309.57736, 58.935373)"><g><path d="M 3.078125 -9 L 3.078125 -41.78125 C 3.078125 -42.070312 5.414062 -43.085938 10.09375 -44.828125 C 14.78125 -46.578125 17.472656 -47.453125 18.171875 -47.453125 C 18.878906 -47.453125 19.941406 -46.609375 21.359375 -44.921875 C 22.773438 -43.234375 23.484375 -41.710938 23.484375 -40.359375 L 23.484375 -5.734375 C 23.484375 -5.398438 21.234375 -4.359375 16.734375 -2.609375 C 12.234375 -0.867188 9.476562 0 8.46875 0 C 7.46875 0 6.316406 -0.878906 5.015625 -2.640625 C 3.722656 -4.410156 3.078125 -6.53125 3.078125 -9 Z M 13.625 -5.671875 C 14.40625 -5.671875 15.203125 -6 16.015625 -6.65625 L 16.015625 -37.15625 C 16.015625 -40.195312 14.96875 -41.71875 12.875 -41.71875 C 12.050781 -41.71875 11.25 -41.410156 10.46875 -40.796875 L 10.46875 -10.234375 C 10.46875 -7.191406 11.519531 -5.671875 13.625 -5.671875 Z M 13.625 -5.671875 "/></g></g></g><g fill="#492f6c" fill-opacity="1"><g transform="translate(33.213814, 58.935373)"><g><path d="M 10.46875 -43.140625 C 15.113281 -45.890625 17.609375 -47.265625 17.953125 -47.265625 C 18.304688 -47.265625 18.894531 -46.945312 19.71875 -46.3125 C 20.539062 -45.675781 21.363281 -44.789062 22.1875 -43.65625 C 23.007812 -42.53125 23.421875 -41.429688 23.421875 -40.359375 L 23.421875 -30.015625 C 23.421875 -29.066406 21.734375 -27.875 18.359375 -26.4375 C 19.222656 -26.1875 20.289062 -25.269531 21.5625 -23.6875 C 22.84375 -22.113281 23.484375 -20.6875 23.484375 -19.40625 L 23.484375 -5.734375 C 23.484375 -5.398438 21.234375 -4.359375 16.734375 -2.609375 C 12.234375 -0.867188 9.476562 0 8.46875 0 C 7.46875 0 6.316406 -0.878906 5.015625 -2.640625 C 3.722656 -4.410156 3.078125 -6.53125 3.078125 -9 L 3.078125 -38.578125 C 3.078125 -40.796875 2.234375 -42.085938 0.546875 -42.453125 L 0.546875 -43.8125 L 6.78125 -47.328125 C 7.6875 -46.953125 8.523438 -46.34375 9.296875 -45.5 C 10.078125 -44.664062 10.46875 -43.878906 10.46875 -43.140625 Z M 13.625 -5.671875 C 14.40625 -5.671875 15.203125 -6 16.015625 -6.65625 L 16.015625 -16.203125 C 16.015625 -19.242188 14.96875 -20.765625 12.875 -20.765625 C 12.050781 -20.765625 11.25 -20.457031 10.46875 -19.84375 L 10.46875 -10.234375 C 10.46875 -7.191406 11.519531 -5.671875 13.625 -5.671875 Z M 16.015625 -36.96875 C 16.015625 -38.082031 15.78125 -39.039062 15.3125 -39.84375 C 14.84375 -40.644531 14.164062 -41.046875 13.28125 -41.046875 C 12.394531 -41.046875 11.457031 -40.425781 10.46875 -39.1875 L 10.46875 -26.4375 C 14.164062 -27.46875 16.015625 -29.6875 16.015625 -33.09375 Z M 16.015625 -36.96875 "/></g></g></g><g fill="#492f6c" fill-opacity="1"><g transform="translate(59.770354, 58.935373)"><g><path d="M 11.578125 -41.46875 C 11.171875 -41.46875 10.800781 -41.265625 10.46875 -40.859375 L 10.46875 -24.59375 L 19.171875 -24.59375 L 19.171875 -23.109375 L 16.078125 -21.5625 L 10.46875 -21.5625 L 10.46875 -15.40625 C 10.46875 -10.84375 10.921875 -8.171875 11.828125 -7.390625 C 13.179688 -6.242188 14.660156 -5.585938 16.265625 -5.421875 C 17.867188 -5.253906 19.597656 -5.171875 21.453125 -5.171875 L 21.453125 -3.390625 C 21.242188 -3.390625 19.722656 -2.820312 16.890625 -1.6875 C 14.054688 -0.5625 12.328125 0 11.703125 0 C 10.429688 0 8.675781 -0.984375 6.4375 -2.953125 C 4.195312 -4.929688 3.078125 -7.066406 3.078125 -9.359375 L 3.078125 -41.78125 C 3.078125 -42.070312 5.425781 -43.085938 10.125 -44.828125 C 14.832031 -46.578125 17.535156 -47.453125 18.234375 -47.453125 C 18.484375 -47.453125 18.769531 -46.851562 19.09375 -45.65625 C 19.425781 -44.46875 19.804688 -43.03125 20.234375 -41.34375 C 20.671875 -39.664062 21.125 -38.425781 21.59375 -37.625 C 22.070312 -36.820312 22.96875 -36.421875 24.28125 -36.421875 L 24.28125 -35.1875 C 23.375 -34.78125 21.84375 -34.050781 19.6875 -33 C 17.53125 -31.945312 16.367188 -31.421875 16.203125 -31.421875 C 15.585938 -31.421875 14.804688 -33.09375 13.859375 -36.4375 C 12.921875 -39.789062 12.160156 -41.46875 11.578125 -41.46875 Z M 11.578125 -41.46875 "/></g></g></g><g fill="#492f6c" fill-opacity="1"><g transform="translate(85.279423, 58.935373)"><g><path d="M 11.578125 -41.46875 C 11.171875 -41.46875 10.800781 -41.265625 10.46875 -40.859375 L 10.46875 -15.40625 C 10.46875 -13.675781 10.570312 -12.285156 10.78125 -11.234375 C 10.988281 -10.191406 11.441406 -9.160156 12.140625 -8.140625 C 13.492188 -6.160156 16.597656 -5.171875 21.453125 -5.171875 L 21.453125 -3.390625 C 21.242188 -3.390625 19.722656 -2.820312 16.890625 -1.6875 C 14.054688 -0.5625 12.328125 0 11.703125 0 C 9.648438 0 7.695312 -1.179688 5.84375 -3.546875 C 4 -5.910156 3.078125 -8.40625 3.078125 -11.03125 L 3.078125 -41.78125 C 3.078125 -42.070312 5.425781 -43.085938 10.125 -44.828125 C 14.832031 -46.578125 17.535156 -47.453125 18.234375 -47.453125 C 18.484375 -47.453125 18.769531 -46.851562 19.09375 -45.65625 C 19.425781 -44.46875 19.804688 -43.03125 20.234375 -41.34375 C 20.671875 -39.664062 21.125 -38.425781 21.59375 -37.625 C 22.070312 -36.820312 22.96875 -36.421875 24.28125 -36.421875 L 24.28125 -35.1875 C 23.375 -34.78125 21.84375 -34.050781 19.6875 -33 C 17.53125 -31.945312 16.367188 -31.421875 16.203125 -31.421875 C 15.585938 -31.421875 14.804688 -33.09375 13.859375 -36.4375 C 12.921875 -39.789062 12.160156 -41.46875 11.578125 -41.46875 Z M 11.578125 -41.46875 "/></g></g></g><g fill="#492f6c" fill-opacity="1"><g transform="translate(110.788493, 58.935373)"><g><path d="M 3.078125 -9 L 3.078125 -41.78125 C 3.078125 -42.070312 5.414062 -43.085938 10.09375 -44.828125 C 14.78125 -46.578125 17.472656 -47.453125 18.171875 -47.453125 C 18.878906 -47.453125 19.941406 -46.609375 21.359375 -44.921875 C 22.773438 -43.234375 23.484375 -41.710938 23.484375 -40.359375 L 23.484375 -5.734375 C 23.484375 -5.398438 21.234375 -4.359375 16.734375 -2.609375 C 12.234375 -0.867188 9.476562 0 8.46875 0 C 7.46875 0 6.316406 -0.878906 5.015625 -2.640625 C 3.722656 -4.410156 3.078125 -6.53125 3.078125 -9 Z M 13.625 -5.671875 C 14.40625 -5.671875 15.203125 -6 16.015625 -6.65625 L 16.015625 -37.15625 C 16.015625 -40.195312 14.96875 -41.71875 12.875 -41.71875 C 12.050781 -41.71875 11.25 -41.410156 10.46875 -40.796875 L 10.46875 -10.234375 C 10.46875 -7.191406 11.519531 -5.671875 13.625 -5.671875 Z M 13.625 -5.671875 "/></g></g></g><g fill="#492f6c" fill-opacity="1"><g transform="translate(137.961196, 58.935373)"><g/></g></g><g fill="#492f6c" fill-opacity="1"><g transform="translate(150.284456, 58.935373)"><g><path d="M 23.484375 -40.359375 L 23.484375 -5.734375 C 23.484375 -5.398438 21.234375 -4.359375 16.734375 -2.609375 C 12.234375 -0.867188 9.476562 0 8.46875 0 C 7.46875 0 6.316406 -0.878906 5.015625 -2.640625 C 3.722656 -4.410156 3.078125 -6.53125 3.078125 -9 L 3.078125 -38.578125 C 3.078125 -40.796875 2.234375 -42.085938 0.546875 -42.453125 L 0.546875 -43.8125 L 6.78125 -47.328125 C 7.6875 -46.953125 8.523438 -46.34375 9.296875 -45.5 C 10.078125 -44.664062 10.46875 -43.878906 10.46875 -43.140625 L 18.125 -47.453125 C 18.863281 -47.453125 19.941406 -46.609375 21.359375 -44.921875 C 22.773438 -43.234375 23.484375 -41.710938 23.484375 -40.359375 Z M 13.625 -5.671875 C 14.40625 -5.671875 15.203125 -6 16.015625 -6.65625 L 16.015625 -35.75 C 16.015625 -38.664062 14.96875 -40.125 12.875 -40.125 C 12.050781 -40.125 11.25 -39.8125 10.46875 -39.1875 L 10.46875 -10.234375 C 10.46875 -7.191406 11.519531 -5.671875 13.625 -5.671875 Z M 13.625 -5.671875 "/></g></g></g><g fill="#492f6c" fill-opacity="1"><g transform="translate(177.457159, 58.935373)"><g><path d="M 3.078125 -9 L 3.078125 -41.78125 C 3.078125 -42.070312 5.414062 -43.085938 10.09375 -44.828125 C 14.78125 -46.578125 17.472656 -47.453125 18.171875 -47.453125 C 18.878906 -47.453125 19.941406 -46.609375 21.359375 -44.921875 C 22.773438 -43.234375 23.484375 -41.710938 23.484375 -40.359375 L 23.484375 -5.734375 C 23.484375 -5.398438 21.234375 -4.359375 16.734375 -2.609375 C 12.234375 -0.867188 9.476562 0 8.46875 0 C 7.46875 0 6.316406 -0.878906 5.015625 -2.640625 C 3.722656 -4.410156 3.078125 -6.53125 3.078125 -9 Z M 13.625 -5.671875 C 14.40625 -5.671875 15.203125 -6 16.015625 -6.65625 L 16.015625 -37.15625 C 16.015625 -40.195312 14.96875 -41.71875 12.875 -41.71875 C 12.050781 -41.71875 11.25 -41.410156 10.46875 -40.796875 L 10.46875 -10.234375 C 10.46875 -7.191406 11.519531 -5.671875 13.625 -5.671875 Z M 13.625 -5.671875 "/></g></g></g><g fill="#492f6c" fill-opacity="1"><g transform="translate(204.629863, 58.935373)"><g/></g></g><g fill="#492f6c" fill-opacity="1"><g transform="translate(216.953123, 58.935373)"><g><path d="M 3.078125 -6.28125 L 3.078125 -37.40625 C 3.078125 -38.757812 2.789062 -39.925781 2.21875 -40.90625 C 1.644531 -41.894531 0.925781 -42.390625 0.0625 -42.390625 L 0.0625 -43.75 C 0.351562 -43.789062 2.59375 -45.046875 6.78125 -47.515625 C 7.0625 -47.429688 7.40625 -47.316406 7.8125 -47.171875 C 8.226562 -47.023438 8.773438 -46.625 9.453125 -45.96875 C 10.128906 -45.3125 10.46875 -44.550781 10.46875 -43.6875 C 10.71875 -43.8125 11.421875 -44.203125 12.578125 -44.859375 C 15.609375 -46.585938 17.484375 -47.453125 18.203125 -47.453125 C 18.921875 -47.453125 19.722656 -47.082031 20.609375 -46.34375 C 21.492188 -45.601562 22.160156 -44.71875 22.609375 -43.6875 C 22.691406 -43.726562 23.535156 -44.160156 25.140625 -44.984375 C 28.347656 -46.628906 30.28125 -47.453125 30.9375 -47.453125 C 32.25 -47.453125 33.476562 -46.585938 34.625 -44.859375 C 35.78125 -43.140625 36.359375 -41.5625 36.359375 -40.125 L 36.359375 -9.125 C 36.359375 -6.863281 37.363281 -5.523438 39.375 -5.109375 L 39.375 -3.765625 L 32.65625 0 C 31.757812 -0.363281 30.921875 -0.96875 30.140625 -1.8125 C 29.359375 -2.65625 28.96875 -3.445312 28.96875 -4.1875 L 28.96875 -34.390625 C 28.96875 -36.847656 28.566406 -38.5625 27.765625 -39.53125 C 26.960938 -40.5 25.515625 -41.023438 23.421875 -41.109375 L 23.421875 -9.125 C 23.421875 -6.863281 24.425781 -5.523438 26.4375 -5.109375 L 26.4375 -3.765625 L 19.71875 0 C 18.8125 -0.363281 17.96875 -0.96875 17.1875 -1.8125 C 16.40625 -2.65625 16.015625 -3.445312 16.015625 -4.1875 L 16.015625 -34.390625 C 16.015625 -36.972656 15.632812 -38.738281 14.875 -39.6875 C 14.125 -40.632812 12.65625 -41.109375 10.46875 -41.109375 L 10.46875 -9.484375 C 10.46875 -7.960938 10.632812 -6.875 10.96875 -6.21875 C 11.300781 -5.5625 11.976562 -5.234375 13 -5.234375 L 13 -3.328125 L 0.375 1.96875 L -0.609375 0 C 0.285156 0 1.144531 -0.535156 1.96875 -1.609375 C 2.707031 -2.628906 3.078125 -4.1875 3.078125 -6.28125 Z M 3.078125 -6.28125 "/></g></g></g><g fill="#492f6c" fill-opacity="1"><g transform="translate(257.003559, 58.935373)"><g><path d="M 3.078125 -6.28125 L 3.078125 -41.65625 C 3.078125 -41.945312 5.414062 -42.960938 10.09375 -44.703125 C 14.78125 -46.453125 17.472656 -47.328125 18.171875 -47.328125 C 18.878906 -47.328125 19.941406 -46.484375 21.359375 -44.796875 C 22.773438 -43.117188 23.484375 -41.597656 23.484375 -40.234375 L 23.484375 -24.09375 L 26.5 -24.09375 L 26.5 -22.609375 L 23.484375 -21.078125 L 23.484375 -9.125 C 23.484375 -6.863281 24.46875 -5.523438 26.4375 -5.109375 L 26.4375 -3.765625 L 19.71875 0 C 18.8125 -0.363281 17.96875 -0.96875 17.1875 -1.8125 C 16.40625 -2.65625 16.015625 -3.445312 16.015625 -4.1875 L 16.015625 -21.078125 L 10.46875 -21.078125 L 10.46875 -9.484375 C 10.46875 -7.960938 10.632812 -6.875 10.96875 -6.21875 C 11.300781 -5.5625 11.976562 -5.234375 13 -5.234375 L 13 -3.328125 L 0.375 1.96875 L -0.609375 0 C 0.285156 0 1.144531 -0.535156 1.96875 -1.609375 C 2.707031 -2.628906 3.078125 -4.1875 3.078125 -6.28125 Z M 12.875 -41.59375 C 12.050781 -41.59375 11.25 -41.285156 10.46875 -40.671875 L 10.46875 -22.5 L 14.109375 -24.09375 L 16.015625 -24.09375 L 16.015625 -37.03125 C 16.015625 -40.070312 14.96875 -41.59375 12.875 -41.59375 Z M 12.875 -41.59375 "/></g></g></g><g fill="#492f6c" fill-opacity="1"><g transform="translate(284.176252, 58.935373)"><g><path d="M 13.625 -5.671875 C 14.40625 -5.671875 15.203125 -6 16.015625 -6.65625 L 16.015625 -14.609375 C 16.015625 -17.109375 15.175781 -18.523438 13.5 -18.859375 L 13.5 -20.21875 L 19.71875 -23.71875 C 20.582031 -23.351562 21.425781 -22.75 22.25 -21.90625 C 23.070312 -21.0625 23.484375 -20.269531 23.484375 -19.53125 L 23.484375 -5.734375 C 23.484375 -5.398438 21.234375 -4.359375 16.734375 -2.609375 C 12.234375 -0.867188 9.476562 0 8.46875 0 C 7.46875 0 6.316406 -0.878906 5.015625 -2.640625 C 3.722656 -4.410156 3.078125 -6.53125 3.078125 -9 L 3.078125 -41.78125 C 3.078125 -42.070312 5.425781 -43.085938 10.125 -44.828125 C 14.832031 -46.578125 17.535156 -47.453125 18.234375 -47.453125 C 18.484375 -47.453125 18.769531 -46.851562 19.09375 -45.65625 C 19.425781 -44.46875 19.804688 -43.03125 20.234375 -41.34375 C 20.671875 -39.664062 21.125 -38.425781 21.59375 -37.625 C 22.070312 -36.820312 22.96875 -36.421875 24.28125 -36.421875 L 24.28125 -35.1875 C 23.375 -34.78125 21.84375 -34.050781 19.6875 -33 C 17.53125 -31.945312 16.367188 -31.421875 16.203125 -31.421875 C 15.585938 -31.421875 14.804688 -33.09375 13.859375 -36.4375 C 12.921875 -39.789062 12.160156 -41.46875 11.578125 -41.46875 C 11.171875 -41.46875 10.800781 -41.265625 10.46875 -40.859375 L 10.46875 -10.234375 C 10.46875 -7.191406 11.519531 -5.671875 13.625 -5.671875 Z M 13.625 -5.671875 "/></g></g></g><g fill="#492f6c" fill-opacity="1"><g transform="translate(310.732792, 58.935373)"><g><path d="M 3.078125 -9 L 3.078125 -41.78125 C 3.078125 -42.070312 5.414062 -43.085938 10.09375 -44.828125 C 14.78125 -46.578125 17.472656 -47.453125 18.171875 -47.453125 C 18.878906 -47.453125 19.941406 -46.609375 21.359375 -44.921875 C 22.773438 -43.234375 23.484375 -41.710938 23.484375 -40.359375 L 23.484375 -5.734375 C 23.484375 -5.398438 21.234375 -4.359375 16.734375 -2.609375 C 12.234375 -0.867188 9.476562 0 8.46875 0 C 7.46875 0 6.316406 -0.878906 5.015625 -2.640625 C 3.722656 -4.410156 3.078125 -6.53125 3.078125 -9 Z M 13.625 -5.671875 C 14.40625 -5.671875 15.203125 -6 16.015625 -6.65625 L 16.015625 -37.15625 C 16.015625 -40.195312 14.96875 -41.71875 12.875 -41.71875 C 12.050781 -41.71875 11.25 -41.410156 10.46875 -40.796875 L 10.46875 -10.234375 C 10.46875 -7.191406 11.519531 -5.671875 13.625 -5.671875 Z M 13.625 -5.671875 "/></g></g></g></svg>